<?xml version="1.0" standalone="no"?>
<!DOCTYPE svg PUBLIC "-//W3C//DTD SVG 20010904//EN"
 "http://www.w3.org/TR/2001/REC-SVG-20010904/DTD/svg10.dtd">
<svg version="1.0" xmlns="http://www.w3.org/2000/svg"
 width="53.000000pt" height="32.000000pt" viewBox="0 0 53.000000 32.000000"
 preserveAspectRatio="xMidYMid meet">

<g transform="translate(0.000000,32.000000) scale(0.100000,-0.100000)"
fill="#000000" stroke="none">
<path d="M272 290 c-18 -11 -38 -31 -44 -45 -10 -22 -18 -25 -60 -25 -55 0
-80 -10 -121 -48 -27 -25 -37 -62 -17 -62 6 0 24 16 41 35 35 40 84 53 141 38
34 -9 38 -8 38 9 0 51 65 97 113 79 54 -21 77 -77 53 -131 -5 -12 2 -18 26
-25 29 -9 33 -15 36 -47 3 -30 7 -38 23 -38 15 0 19 7 19 36 0 27 -7 43 -30
64 -21 20 -30 37 -30 60 0 93 -106 150 -188 100z"/>
</g>
</svg>
